<?xml version="1.0" encoding="utf-8"?>
<svg xmlns="http://www.w3.org/2000/svg" viewBox="-1012.4609 -1247.4038 2534.3706 2992.1938" width="2534.37px" height="2992.19px" preserveAspectRatio="none"><g fill="#000000" stroke="none" transform="matrix(-1, 0, 0, -1, -2123.08105469, -5002.41015625)" style="transform-origin: 2377.81px 5251.1px;" id="object-0"><path d="M1350 6741 c-57 -18 -110 -53 -157 -104 -90 -99 -84 8 -81 -1402 l3 -1240 29 -58 c34 -67 83 -115 158 -154 l53 -28 1020 0 1020 0 47 22 c66 30 143 105 175 172 l28 56 0 1245 0 1245 -27 55 c-35 72 -99 136 -168 169 l-55 26 -1010 2 c-555 1 -1021 -2 -1035 -6z m726 -570 c48 -28 91 -69 124 -120 15 -23 16 -23 70 -7 68 20 142 20 209 0 53 -15 53 -15 69 8 58 83 157 152 209 146 35 -4 67 -47 56 -76 -5 -12 -33 -36 -63 -54 -30 -18 -67 -52 -83 -74 l-29 -41 35 -46 c47 -61 77 -145 77 -212 l0 -55 -372 2 -373 3 -3 51 c-4 63 26 147 75 210 l34 46 -27 40 c-27 39 -73 78 -92 78 -5 0 -21 9 -36 21 -31 25 -34 61 -6 89 28 28 66 25 126 -9z m-351 -671 c59 -49 116 -92 126 -95 14 -5 36 9 81 49 l61 56 164 0 163 0 0 -590 c0 -671 11 -602 -94 -575 -106 28 -193 81 -289 178 -103 103 -84 105 -221 -22 -110 -102 -154 -116 -185 -59 -13 22 -13 30 -2 50 17 30 134 132 210 182 l58 38 -23 62 c-12 34 -25 87 -29 119 l-7 57 -132 0 c-148 0 -176 9 -176 59 0 52 22 60 175 63 l138 3 13 62 c7 34 21 81 32 105 l19 44 -51 27 c-69 37 -226 186 -226 215 0 29 34 62 63 62 15 0 63 -33 132 -90z m1474 64 c12 -15 21 -34 21 -42 0 -26 -165 -174 -254 -227 -16 -9 -16 -13 3 -55 10 -25 25 -73 31 -107 l13 -63 143 0 c136 0 144 -1 158 -22 22 -31 20 -45 -9 -73 -23 -24 -29 -25 -158 -25 l-134 0 -6 -52 c-4 -46 -26 -123 -52 -180 -4 -11 -3 -18 4 -18 21 0 115 -66 194 -134 82 -72 94 -100 60 -138 -32 -35 -68 -23 -147 50 -41 38 -95 86 -121 107 -44 37 -48 38 -57 20 -20 -39 -164 -172 -218 -202 -59 -33 -123 -57 -183 -68 l-37 -7 0 591 0 591 148 0 c148 0 149 0 188 -29 21 -15 50 -40 63 -55 14 -14 29 -26 34 -26 13 0 102 68 178 135 71 64 105 71 138 29z"/></g></svg>